@startuml Data diagram
title Data diagram

    class User {
        id: Uid
        username: String
        trackList : ArrayList<Track>
        trackLiteList : ArrayList<TrackLite>
        email : String
        password : String
        birthdate : Date
        avatar : ByteArray
        list tracklte
        UserLite userToUserLite(User)
    }

    class UserLite {
        id: Uid
        username: String
    }

    class Track{
        id : Uid
        userId : Uid
        title : String
        author : String
        tags : ArrayList<String>
        rating : ArrayList<Note>
        comments : ArrayList<Commentaire>
        audio :
        TrackLite trackToTrackLite(Track)
    }

    class TrackLite{
        id : Uid
        userId : Uid
        title : String
        author : String
        tags : ArrayList<String>
    }

    class Comment {
        id : Uid
        user: UserLite
        username : String
        date : Datetime
        text : String
    }
    
    class Rating{
        id : Uid
        user : UserLite
        username : String
        date : Datetime
        val : Short
    }

    User -- Track
    Comment -- Track
    Rating --* Track
    UserLite o-- Rating
    UserLite o-- Comment
    UserLite --o TrackLite
    
@enduml